<?xml version="1.0" encoding="UTF-8" standalone="no"?>
<svg
   data-v-423bf9ae=""
   viewBox="0 0 406 107"
   class="iconLeftSlogan"
   version="1.1"
   id="svg277"
   sodipodi:docname="logo.svg"
   inkscape:version="1.1.1 (3bf5ae0d25, 2021-09-20)"
   xmlns:inkscape="http://www.inkscape.org/namespaces/inkscape"
   xmlns:sodipodi="http://sodipodi.sourceforge.net/DTD/sodipodi-0.dtd"
   xmlns:xlink="http://www.w3.org/1999/xlink"
   xmlns="http://www.w3.org/2000/svg"
   xmlns:svg="http://www.w3.org/2000/svg">
  <sodipodi:namedview
     id="namedview279"
     pagecolor="#ffffff"
     bordercolor="#666666"
     borderopacity="1.0"
     inkscape:pageshadow="2"
     inkscape:pageopacity="0.0"
     inkscape:pagecheckerboard="0"
     showgrid="false"
     inkscape:zoom="2.6059113"
     inkscape:cx="127.21078"
     inkscape:cy="53.532137"
     inkscape:window-width="1920"
     inkscape:window-height="1017"
     inkscape:window-x="881"
     inkscape:window-y="1551"
     inkscape:window-maximized="1"
     inkscape:current-layer="svg277" />
  <!---->
  <!---->
  <!---->
  <g
     data-v-423bf9ae=""
     id="9da8d157-13d4-47aa-a00d-cb89b12be405"
     fill="#000000"
     transform="matrix(5.836576,0,0,5.836576,91.313051,9.9786905)">
    <path
       style="stroke:#ffffff;stroke-width:0.17133333;stroke-linecap:butt;stroke-linejoin:miter;stroke-miterlimit:4;stroke-dasharray:none;stroke-opacity:1"
       sodipodi:type="inkscape:offset"
       inkscape:radius="0.0012203516"
       inkscape:original="M 26.449219 0.4609375 L 25.470703 0.69921875 L 22.990234 8.5390625 L 22.990234 6.5800781 L 21.570312 2.1601562 L 22.710938 1.6894531 L 22.539062 0.69921875 L 18.490234 0.69921875 L 18.349609 1.6894531 L 19.589844 2.1601562 L 22.220703 10.740234 L 23.589844 10.5 L 25.820312 3.4394531 L 25.820312 5.109375 L 27.580078 10.740234 L 28.919922 10.5 L 31.509766 2.1601562 L 32.759766 1.6894531 L 32.609375 0.69921875 L 29.439453 0.69921875 L 29.289062 1.6894531 L 30.410156 2.1601562 L 28.349609 8.4707031 L 28.349609 6.5800781 L 26.449219 0.4609375 z M 0.69921875 0.69921875 L 0.56054688 1.6894531 L 1.7402344 2.1601562 L 1.7402344 9.0703125 L 0.5703125 9.5097656 L 0.73046875 10.5 L 4.6796875 10.5 L 4.8203125 9.5097656 L 3.6699219 9.0703125 L 3.6699219 5.9902344 L 7.8105469 5.9902344 L 7.8105469 9.0703125 L 6.640625 9.5097656 L 6.7792969 10.5 L 10.75 10.5 L 10.910156 9.5097656 L 9.7402344 9.0605469 L 9.7402344 2.1601562 L 10.919922 1.6894531 L 10.779297 0.69921875 L 6.7792969 0.69921875 L 6.640625 1.6894531 L 7.8105469 2.1601562 L 7.8105469 4.9101562 L 3.6699219 4.9101562 L 3.6699219 2.1601562 L 4.8398438 1.6894531 L 4.6992188 0.69921875 L 0.69921875 0.69921875 z M 40.25 0.69921875 L 40.109375 1.6894531 L 41.289062 2.1601562 L 41.289062 9.0703125 L 40.119141 9.5097656 L 40.259766 10.5 L 44.349609 10.5 C 47.849609 10.5 49.490234 8.2492969 49.490234 5.5292969 C 49.490234 2.8092969 47.880625 0.69921875 44.390625 0.69921875 L 40.25 0.69921875 z M 43.220703 1.6894531 L 44.390625 1.6894531 C 46.450625 1.6894531 47.400391 3.4 47.400391 5.5 C 47.400391 7.62 46.450625 9.5097656 44.390625 9.5097656 L 43.220703 9.5097656 L 43.220703 1.6894531 z M 13.119141 8.8203125 C 12.599141 8.8203125 12.169922 9.2495313 12.169922 9.7695312 C 12.169922 10.299531 12.599141 10.740234 13.119141 10.740234 C 13.649141 10.740234 14.080078 10.299531 14.080078 9.7695312 C 14.080078 9.2495313 13.649141 8.8203125 13.119141 8.8203125 z M 34.439453 8.8203125 C 33.919453 8.8203125 33.490234 9.2495313 33.490234 9.7695312 C 33.490234 10.299531 33.919453 10.740234 34.439453 10.740234 C 34.969453 10.740234 35.410156 10.299531 35.410156 9.7695312 C 35.410156 9.2495313 34.969453 8.8203125 34.439453 8.8203125 z M 51.550781 8.8203125 C 51.030781 8.8203125 50.599609 9.2495313 50.599609 9.7695312 C 50.599609 10.299531 51.030781 10.740234 51.550781 10.740234 C 52.080781 10.740234 52.509766 10.299531 52.509766 9.7695312 C 52.509766 9.2495313 52.080781 8.8203125 51.550781 8.8203125 z "
       xlink:href="#path253"
       id="path1013"
       inkscape:href="#path253"
       d="M 26.449219,0.4609375 25.470703,0.69921875 22.990234,8.5390625 V 6.5800781 L 21.570312,2.1601562 22.710938,1.6894531 22.539062,0.69921875 H 18.490234 L 18.349609,1.6894531 19.589844,2.1601562 22.220703,10.740234 23.589844,10.5 25.820312,3.4394531 V 5.109375 l 1.759766,5.630859 1.339844,-0.240234 2.589844,-8.3398438 1.25,-0.4707031 -0.150391,-0.99023435 H 29.439453 L 29.289062,1.6894531 30.410156,2.1601562 28.349609,8.4707031 V 6.5800781 Z M 0.69921875,0.69921875 0.56054688,1.6894531 1.7402344,2.1601562 V 9.0703125 L 0.5703125,9.5097656 0.73046875,10.5 H 4.6796875 L 4.8203125,9.5097656 3.6699219,9.0703125 V 5.9902344 h 4.140625 V 9.0703125 L 6.640625,9.5097656 6.7792969,10.5 H 10.75 L 10.910156,9.5097656 9.7402344,9.0605469 V 2.1601562 L 10.919922,1.6894531 10.779297,0.69921875 H 6.7792969 L 6.640625,1.6894531 7.8105469,2.1601562 v 2.75 h -4.140625 v -2.75 L 4.8398438,1.6894531 4.6992188,0.69921875 Z m 39.55078125,0 -0.140625,0.99023435 1.179687,0.4707031 V 9.0703125 L 40.119141,9.5097656 40.259766,10.5 h 4.089843 c 3.5,0 5.140625,-2.2507031 5.140625,-4.9707031 0,-2.72 -1.609609,-4.83007815 -5.099609,-4.83007815 z m 2.970703,0.99023435 h 1.169922 c 2.06,0 3.009766,1.7105469 3.009766,3.8105469 0,2.12 -0.949766,4.0097656 -3.009766,4.0097656 H 43.220703 Z M 13.119141,8.8203125 c -0.52,0 -0.949219,0.4292188 -0.949219,0.9492187 0,0.5299998 0.429219,0.9707028 0.949219,0.9707028 0.53,0 0.960937,-0.440703 0.960937,-0.9707028 0,-0.5199999 -0.430937,-0.9492187 -0.960937,-0.9492187 z m 21.320312,0 c -0.52,0 -0.949219,0.4292188 -0.949219,0.9492187 0,0.5299998 0.429219,0.9707028 0.949219,0.9707028 0.53,0 0.970703,-0.440703 0.970703,-0.9707028 0,-0.5199999 -0.440703,-0.9492187 -0.970703,-0.9492187 z m 17.111328,0 c -0.52,0 -0.951172,0.4292188 -0.951172,0.9492187 0,0.5299998 0.431172,0.9707028 0.951172,0.9707028 0.53,0 0.958985,-0.440703 0.958985,-0.9707028 0,-0.5199999 -0.428985,-0.9492187 -0.958985,-0.9492187 z" />
    <path
       d="M 10.92,1.69 10.78,0.7 h -4 L 6.64,1.69 7.81,2.16 V 4.91 H 3.67 V 2.16 L 4.84,1.69 4.7,0.7 h -4 L 0.56,1.69 1.74,2.16 V 9.07 L 0.57,9.51 0.73,10.5 H 4.68 L 4.82,9.51 3.67,9.07 V 5.99 H 7.81 V 9.07 L 6.64,9.51 6.78,10.5 h 3.97 L 10.91,9.51 9.74,9.06 v -6.9 z m 2.2,7.13 c -0.52,0 -0.95,0.43 -0.95,0.95 0,0.53 0.43,0.97 0.95,0.97 0.53,0 0.96,-0.44 0.96,-0.97 0,-0.52 -0.43,-0.95 -0.96,-0.95 z M 27.58,10.74 28.92,10.5 31.51,2.16 32.76,1.69 32.61,0.7 h -3.17 l -0.15,0.99 1.12,0.47 -2.06,6.31 V 6.58 L 26.45,0.46 25.47,0.7 22.99,8.54 V 6.58 L 21.57,2.16 22.71,1.69 22.54,0.7 h -4.05 l -0.14,0.99 1.24,0.47 2.63,8.58 1.37,-0.24 2.23,-7.06 v 1.67 z m 6.86,-1.92 c -0.52,0 -0.95,0.43 -0.95,0.95 0,0.53 0.43,0.97 0.95,0.97 0.53,0 0.97,-0.44 0.97,-0.97 0,-0.52 -0.44,-0.95 -0.97,-0.95 z m 9.95,-7.13 c 2.06,0 3.01,1.71 3.01,3.81 0,2.12 -0.95,4.01 -3.01,4.01 H 43.22 V 1.69 Z m -0.04,8.81 c 3.5,0 5.14,-2.25 5.14,-4.97 0,-2.72 -1.61,-4.83 -5.1,-4.83 h -4.14 l -0.14,0.99 1.18,0.47 v 6.91 l -1.17,0.44 0.14,0.99 z m 7.2,-1.68 c -0.52,0 -0.95,0.43 -0.95,0.95 0,0.53 0.43,0.97 0.95,0.97 0.53,0 0.96,-0.44 0.96,-0.97 0,-0.52 -0.43,-0.95 -0.96,-0.95 z"
       id="path253"
       style="stroke:#ffffff;stroke-width:0.23986666;stroke-linecap:butt;stroke-linejoin:miter;stroke-miterlimit:4;stroke-dasharray:none;stroke-opacity:1" />
  </g>
  <defs
     data-v-423bf9ae=""
     id="defs261">
    <linearGradient
       data-v-423bf9ae=""
       gradientTransform="rotate(25)"
       id="2b45ed21-f210-474b-91b1-48aa780853b5"
       x1="0%"
       y1="0%"
       x2="100%"
       y2="0%">
      <stop
         data-v-423bf9ae=""
         offset="0%"
         style="stop-color: rgb(0, 21, 214); stop-opacity: 1;"
         id="stop256" />
      <stop
         data-v-423bf9ae=""
         offset="100%"
         style="stop-color: rgb(9, 137, 251); stop-opacity: 1;"
         id="stop258" />
    </linearGradient>
  </defs>
  <g
     data-v-423bf9ae=""
     id="7c4635cb-3e98-41e0-be5c-707177b8fc95"
     transform="matrix(1.0868111504448785,0,0,1.0868111504448785,-13.255261890115804,-0.23894260335429607)"
     stroke="none"
     fill="url(#2b45ed21-f210-474b-91b1-48aa780853b5)">
    <g
       clip-rule="evenodd"
       id="g271">
      <path
         d="M12.983 10.59l17.018 88.223-5.872-59.049 29.021-1.892-.054-9.883L64.549 1 53.622 18.977z"
         id="path263" />
      <path
         d="M59.389 54.548l5.16-53.541-8.74 39.716-19.612 1.045 1.57 20.462-7.766 36.583 12.057-39.899z"
         id="path265" />
      <path
         d="M62.8 67.182l.549-10.453-15.979 3.755-.032 11.797-17.337 26.532 21.68-27.616zM65.711 62.394l14.841-4.731 1.509-12.532-15.899 2.095zM72.07 44.502l10.988-1.417 1.581-10.278-8.079-.373L64.549 1l8.43 30.967z"
         id="path267" />
      <path
         d="M87.413 31.294l1.256-9.506-9.544-2.694L64.549 1l14.483 22.437-.422 7z"
         id="path269" />
    </g>
  </g>
  <!---->
  <g
     data-v-423bf9ae=""
     id="f47cf091-e667-4994-a899-fbe114852eab"
     fill="#000000"
     transform="matrix(0.57517392,0,0,0.57517392,116.62005,83.682034)">
    <path
       d="M 0.77,3.64 H 0.38 L 0.4,3.08 h 3.1 v 0 q 1.74,0 2.52,0.67 v 0 0 q 0.77,0.67 0.77,1.62 v 0 0 q 0,0.71 -0.54,1.23 v 0 0 Q 5.69,7.14 5,7.35 v 0 0 q 1.08,0.22 1.61,0.99 v 0 0 q 0.52,0.74 0.51,1.67 v 0 0 q 0,1 -0.63,1.58 v 0 0 q -0.6,0.54 -1.55,0.69 v 0 0 q -0.92,0.13 -2.47,0.13 v 0 H 0.49 v -0.54 h 0.42 v 0 q 0.36,0 0.47,-0.07 v 0 0 Q 1.5,11.73 1.5,11.46 v 0 -7.32 0 Q 1.5,3.81 1.35,3.72 v 0 0 Q 1.21,3.64 0.77,3.64 Z M 2.6,7.59 v 0 l 0.03,3.76 v 0 q 0,0.28 0.17,0.36 v 0 0 q 0.17,0.09 0.74,0.09 v 0 0 q 2.26,0 2.26,-1.89 v 0 0 Q 5.8,9.22 5.48,8.73 v 0 0 Q 5.16,8.24 4.63,8.02 v 0 0 Q 4.05,7.75 3.61,7.68 v 0 0 Q 3.13,7.59 2.6,7.59 Z M 2.63,4.01 v 3.18 h 1.38 v 0 q 0.65,0 1.07,-0.53 v 0 0 Q 5.48,6.15 5.49,5.54 v 0 0 Q 5.49,4.85 4.9,4.27 v 0 0 Q 4.33,3.69 3.05,3.69 v 0 0 q -0.42,0 -0.42,0.32 z M 15.55,3.64 H 15.17 V 3.08 h 3.36 l 0.02,0.56 h -0.54 v 0 q -0.43,0 -0.59,0.09 v 0 0 q -0.17,0.1 -0.17,0.43 v 0 5.17 0 q 0,0.3 0.04,0.45 v 0 0 q 0.04,0.23 0.2,0.63 v 0 0 q 0.17,0.39 0.47,0.68 v 0 0 q 0.31,0.31 0.87,0.54 v 0 0 q 0.57,0.22 1.35,0.22 v 0 0 q 0.85,0 1.4,-0.18 v 0 0 q 0.56,-0.19 0.87,-0.45 v 0 0 q 0.31,-0.26 0.45,-0.73 v 0 0 q 0.17,-0.54 0.18,-0.83 v 0 0 q 0.03,-0.48 0.03,-0.99 v 0 -4.53 0 q 0,-0.33 -0.14,-0.42 v 0 0 Q 22.82,3.64 22.34,3.64 v 0 h -0.49 l 0.03,-0.56 h 2.63 v 0.56 h -0.19 v 0 q -0.33,0 -0.44,0.11 v 0 0 q -0.11,0.11 -0.11,0.5 v 0 4.97 0 q 0,3.45 -3.59,3.45 v 0 0 q -2.17,0 -3.12,-0.91 v 0 0 q -0.93,-0.9 -0.93,-2.35 v 0 -5.27 0 q 0,-0.33 -0.11,-0.42 v 0 0 Q 15.91,3.64 15.55,3.64 Z m 17.28,0 h -0.58 l 0.01,-0.56 h 3.51 v 0.56 h -0.23 v 0 q -0.55,0 -0.72,0.09 v 0 0 q -0.13,0.08 -0.13,0.55 v 0 6.94 0 q 0,0.46 0.1,0.55 v 0 0 q 0.11,0.1 0.65,0.1 v 0 h 0.54 L 36,12.41 H 32.42 L 32.4,11.87 h 0.36 v 0 q 0.57,0 0.68,-0.1 v 0 0 q 0.11,-0.1 0.11,-0.52 v 0 -7.11 0 q 0,-0.37 -0.1,-0.43 v 0 0 Q 33.34,3.64 32.83,3.64 Z m 11.4,0 h -0.49 l 0.01,-0.56 h 3.59 V 3.64 H 46.7 v 0 q -0.37,0 -0.49,0.08 v 0 0 Q 46.1,3.8 46.1,4.16 v 0 7.06 0 q 0,0.35 0.09,0.45 v 0 0 q 0.08,0.1 0.38,0.1 v 0 0 q 2.87,-0.03 3.52,-0.14 v 0 0 q 0.22,-0.02 0.3,-0.24 v 0 0 q 0.08,-0.22 0.28,-1.34 v 0 l 0.49,0.03 -0.46,2.33 h -6.77 l -0.01,-0.54 h 0.39 v 0 q 0.51,0 0.57,-0.07 v 0 0 q 0.09,-0.08 0.09,-0.47 v 0 -7.24 0 q 0,-0.29 -0.15,-0.37 v 0 0 Q 44.67,3.64 44.23,3.64 Z m 14.7,0 -0.04,-0.56 h 3.78 v 0 q 1.32,0 2.19,0.11 v 0 0 q 0.82,0.1 1.51,0.5 v 0 0 q 0.95,0.58 1.46,1.55 v 0 0 q 0.49,0.97 0.49,2.15 v 0 0 q 0,0.66 -0.15,1.26 v 0 0 q -0.15,0.64 -0.54,1.33 v 0 0 q -0.43,0.75 -0.99,1.23 v 0 0 q -0.63,0.55 -1.6,0.87 v 0 0 q -1.01,0.33 -2.28,0.33 v 0 h -3.62 l -0.01,-0.54 h 0.38 v 0 q 0.52,0 0.62,-0.08 v 0 0 q 0.11,-0.09 0.11,-0.54 v 0 -7.11 0 q 0,-0.37 -0.1,-0.43 v 0 0 Q 60.03,3.64 59.52,3.64 v 0 z m 2.44,0.75 v 6.83 0 q 0,0.45 0.17,0.55 v 0 0 q 0.15,0.1 1.02,0.1 v 0 0 q 1.06,0 1.85,-0.26 v 0 0 q 0.85,-0.26 1.29,-0.62 v 0 0 q 0.49,-0.41 0.8,-0.94 v 0 0 q 0.3,-0.53 0.43,-1.09 v 0 0 q 0.12,-0.55 0.12,-1.14 v 0 0 q 0,-0.79 -0.26,-1.48 v 0 0 Q 66.52,5.65 65.99,5.05 v 0 0 Q 65.46,4.46 64.55,4.09 v 0 0 Q 63.63,3.73 62.47,3.73 v 0 h -0.52 v 0 q -0.37,0 -0.47,0.12 v 0 0 Q 61.37,3.99 61.37,4.39 Z M 76.88,3.64 H 76.29 L 76.3,3.08 h 3.52 v 0.56 h -0.24 v 0 q -0.54,0 -0.71,0.09 v 0 0 q -0.14,0.08 -0.14,0.55 v 0 6.94 0 q 0,0.46 0.11,0.55 v 0 0 q 0.11,0.1 0.64,0.1 v 0 h 0.55 l 0.01,0.54 h -3.58 l -0.01,-0.54 h 0.36 v 0 q 0.56,0 0.67,-0.1 v 0 0 q 0.11,-0.1 0.11,-0.52 v 0 -7.11 0 q 0,-0.37 -0.1,-0.43 v 0 0 Q 77.38,3.64 76.88,3.64 Z m 10.91,0 -0.01,-0.56 h 2.17 l 5.74,7.4 v -6.34 0 q 0,-0.33 -0.15,-0.42 v 0 0 Q 95.38,3.64 94.92,3.64 v 0 h -0.49 l 0.03,-0.56 h 2.98 v 0.56 h -0.32 v 0 q -0.47,0 -0.62,0.11 v 0 0 q -0.15,0.11 -0.15,0.5 v 0 8.07 0.15 0 q 0,0.05 -0.01,0.1 v 0 0 q -0.01,0.04 -0.05,0.07 v 0 0 q -0.01,0.01 -0.07,0.01 v 0 h -0.19 -0.06 -0.03 l -0.02,-0.01 v 0 q -0.03,0 -0.05,-0.01 v 0 0 Q 95.86,12.61 95.86,12.6 v 0 0 q 0,-0.02 -0.01,-0.03 v 0 0 Q 95.82,12.54 95.79,12.5 v 0 0 q -0.01,-0.02 -0.03,-0.05 v 0 0 Q 95.74,12.41 95.72,12.4 v 0 l -6.1,-7.84 0.07,6.66 v 0 q 0,0.45 0.16,0.55 v 0 0 q 0.16,0.1 0.87,0.1 v 0 h 0.24 v 0.54 h -2.94 v -0.54 h 0.42 v 0 q 0.38,0 0.49,-0.11 v 0 0 q 0.09,-0.1 0.1,-0.51 v 0 V 3.8 L 88.89,3.64 Z m 17.77,4.6 v 0 0 q 0,-1.32 0.62,-2.52 v 0 0 q 0.61,-1.2 1.84,-2 v 0 0 q 1.24,-0.8 2.86,-0.8 v 0 0 q 1.27,0 2.86,0.65 v 0 -0.71 h 0.56 l 0.09,3.06 -0.54,0.01 -0.1,-1.45 v 0 q -0.08,-0.07 -0.36,-0.24 v 0 0 q -0.25,-0.17 -1,-0.41 v 0 0 Q 111.67,3.6 110.76,3.6 v 0 0 q -0.97,0 -1.74,0.33 v 0 0 q -0.77,0.34 -1.24,0.9 v 0 0 q -0.46,0.56 -0.71,1.25 v 0 0 q -0.25,0.7 -0.25,1.49 v 0 0 q 0,1.76 1.12,3.12 v 0 0 q 1.12,1.36 2.98,1.36 v 0 0 q 0.7,0 1.33,-0.2 v 0 0 q 0.63,-0.19 0.85,-0.37 v 0 l 0.24,-0.2 v -2.5 h -1.66 l -0.01,-0.55 h 3.86 l 0.01,0.55 h -1.07 v 2.86 l -0.78,0.34 v 0 q -0.7,0.32 -0.92,0.41 v 0 0 q -0.26,0.09 -0.9,0.22 v 0 0 q -0.61,0.13 -1.22,0.13 v 0 0 q -1.3,0 -2.27,-0.37 v 0 0 q -0.99,-0.37 -1.6,-1.01 v 0 0 q -0.59,-0.6 -0.91,-1.42 v 0 0 q -0.31,-0.79 -0.31,-1.7 z m 27.43,-4.6 v 0 l 0.02,-0.56 h 3.13 v 0.56 h -0.28 v 0 q -0.45,0 -0.56,0.02 v 0 0 q -0.17,0.05 -0.17,0.16 v 0 0 q 0,0.07 0.26,0.49 v 0 l 2,3.15 2.45,-3.47 v 0 q 0.08,-0.16 0.08,-0.17 v 0 0 q 0,-0.18 -0.91,-0.18 v 0 h -0.22 l -0.01,-0.56 h 2.54 v 0.56 h -0.07 v 0 q -0.35,0 -0.49,0.08 v 0 0 q -0.16,0.08 -0.45,0.5 v 0 l -2.72,3.95 v 3.05 0 q 0,0.44 0.11,0.55 v 0 0 q 0.09,0.1 0.71,0.1 v 0 h 0.63 l -0.02,0.54 h -3.93 l 0.02,-0.54 h 0.56 v 0 q 0.53,0 0.66,-0.08 v 0 0 q 0.12,-0.09 0.12,-0.54 v 0 -3.19 l -2.29,-3.57 v 0 q -0.42,-0.65 -0.55,-0.76 v 0 0 Q 133.5,3.64 132.99,3.64 Z m 16.45,4.19 v 0 0 q 0,-1.21 0.4,-2.15 v 0 0 q 0.42,-0.96 1.11,-1.56 v 0 0 q 0.69,-0.61 1.55,-0.93 v 0 0 q 0.84,-0.31 1.79,-0.31 v 0 0 q 1.26,0 2.31,0.52 v 0 0 q 1.08,0.53 1.8,1.67 v 0 0 q 0.69,1.1 0.7,2.68 v 0 0 q 0,0.95 -0.31,1.79 v 0 0 q -0.31,0.84 -0.91,1.56 v 0 0 q -0.61,0.71 -1.54,1.12 v 0 0 q -0.97,0.41 -2.16,0.42 v 0 0 q -1.13,0 -2.07,-0.41 v 0 0 q -0.93,-0.4 -1.49,-1.09 v 0 0 q -0.58,-0.69 -0.87,-1.54 v 0 0 q -0.31,-0.88 -0.31,-1.77 z m 1.26,-0.45 v 0 0 q 0,1.14 0.43,2.22 v 0 0 q 0.4,1.04 1.33,1.73 v 0 0 q 0.91,0.7 2.1,0.71 v 0 0 q 1.37,0 2.31,-1.03 v 0 0 q 0.95,-1.04 0.95,-2.91 v 0 0 q 0,-2.11 -1.16,-3.38 v 0 0 Q 155.51,3.46 154,3.45 v 0 0 q -0.52,0 -1.06,0.2 v 0 0 q -0.55,0.2 -1.05,0.6 v 0 0 q -0.55,0.43 -0.87,1.23 v 0 0 q -0.32,0.79 -0.32,1.9 z m 16.9,-3.74 h -0.39 V 3.08 h 3.37 l 0.01,0.56 h -0.53 v 0 q -0.43,0 -0.59,0.09 v 0 0 q -0.17,0.1 -0.17,0.43 v 0 5.17 0 q 0,0.3 0.03,0.45 v 0 0 q 0.04,0.23 0.21,0.63 v 0 0 q 0.17,0.39 0.46,0.68 v 0 0 q 0.31,0.31 0.87,0.54 v 0 0 q 0.58,0.22 1.35,0.22 v 0 0 q 0.86,0 1.41,-0.18 v 0 0 q 0.56,-0.19 0.86,-0.45 v 0 0 q 0.31,-0.26 0.46,-0.73 v 0 0 q 0.17,-0.54 0.17,-0.83 v 0 0 q 0.03,-0.48 0.04,-0.99 v 0 -4.53 0 q 0,-0.33 -0.15,-0.42 v 0 0 q -0.15,-0.08 -0.63,-0.08 v 0 h -0.49 l 0.03,-0.56 h 2.63 v 0.56 h -0.19 v 0 q -0.32,0 -0.43,0.11 v 0 0 q -0.12,0.11 -0.12,0.5 v 0 4.97 0 q 0,3.45 -3.59,3.45 v 0 0 q -2.16,0 -3.11,-0.91 v 0 0 q -0.94,-0.9 -0.94,-2.35 v 0 -5.27 0 q 0,-0.33 -0.1,-0.42 v 0 0 Q 167.96,3.64 167.6,3.64 Z m 17.03,0 h -0.39 l 0.01,-0.56 h 3.22 v 0 q 1.13,0 1.74,0.13 v 0 0 q 0.64,0.16 1.1,0.54 v 0 0 q 1.01,0.82 1.01,1.96 v 0 0 q 0,0.72 -0.47,1.33 v 0 0 q -0.5,0.62 -1.53,0.88 v 0 l 2.69,3.57 v 0 q 0.31,0.38 0.6,0.38 v 0 h 0.6 l 0.03,0.54 h -2.03 l -3,-4.31 h -0.17 v 0 q -0.04,0 -0.09,0.01 v 0 0 q -0.06,0 -0.07,0 v 0 0 q -0.88,0 -1.28,-0.08 v 0 3.43 0 q 0,0.3 0.14,0.35 v 0 0 q 0.13,0.06 0.83,0.06 v 0 h 0.71 l -0.03,0.54 h -3.72 v -0.54 h 0.32 v 0 q 0.47,0 0.53,-0.06 v 0 0 q 0.09,-0.07 0.09,-0.35 v 0 -7.32 0 q 0,-0.32 -0.2,-0.41 v 0 0 q -0.22,-0.09 -0.64,-0.09 z m 1.97,0.64 v 3.29 0 q 0.19,0.13 0.9,0.14 v 0 0 q 1.27,0 1.85,-0.44 v 0 0 q 0.59,-0.43 0.59,-1.35 v 0 0 q 0,-1 -0.78,-1.65 v 0 0 q -0.75,-0.63 -2.14,-0.63 v 0 0 q -0.25,0 -0.33,0.11 v 0 0 q -0.08,0.09 -0.09,0.53 z M 210.94,3.64 H 210.7 V 3.08 h 3.11 l -0.02,0.56 h -0.3 v 0 q -0.83,0 -0.83,0.3 v 0 0 q 0,0.09 0.03,0.15 v 0 l 2.42,6.67 2.31,-5.91 -0.1,-0.28 v 0 q -0.03,-0.05 -0.05,-0.13 v 0 0 q -0.02,-0.08 -0.04,-0.13 v 0 0 Q 217.21,4.25 217.2,4.22 v 0 0 q -0.03,-0.06 -0.12,-0.26 v 0 0 q -0.09,-0.16 -0.2,-0.25 v 0 0 q -0.09,-0.07 -0.26,-0.07 v 0 h -0.68 V 3.08 h 3.33 v 0.56 h -0.74 v 0 q -0.23,0 -0.29,0.04 v 0 0 q -0.07,0.04 -0.07,0.18 v 0 0 q -0.01,0.14 0.25,0.9 v 0 l 2.04,5.96 2.49,-6.54 v 0 q 0.06,-0.17 0.06,-0.24 v 0 0 q 0,-0.19 -0.17,-0.25 v 0 0 q -0.16,-0.05 -0.51,-0.05 v 0 h -0.37 V 3.08 h 2.4 l 0.01,0.56 h -0.17 v 0 q -0.35,0 -0.45,0.13 v 0 0 q -0.12,0.19 -0.37,0.83 v 0 l -3.09,8.04 h -0.23 l -2.38,-7 -2.72,6.99 h -0.22 l -2.98,-8.11 v 0 q -0.21,-0.56 -0.37,-0.73 v 0 0 q -0.16,-0.16 -0.45,-0.15 z m 21.17,0 -0.01,-0.56 h 7.21 v 0 q 0.02,1.06 0.07,2.2 v 0 l -0.55,0.02 v 0 q -0.01,-0.64 -0.06,-1.05 v 0 0 q -0.05,-0.36 -0.1,-0.45 v 0 0 Q 238.62,3.71 238.5,3.69 v 0 0 q -0.1,-0.01 -0.68,-0.01 v 0 h -2.38 v 0 q -0.55,0 -0.69,0.09 v 0 0 q -0.13,0.09 -0.13,0.56 v 0 1.95 0 q 0,0.41 0.06,0.48 v 0 0 q 0.07,0.08 0.41,0.08 v 0 h 2.11 v 0 q 0.36,0 0.44,-0.11 v 0 0 q 0.09,-0.1 0.09,-0.59 v 0 -0.53 l 0.52,0.02 v 3.34 h -0.52 v -0.73 0 q 0,-0.58 -0.07,-0.67 v 0 0 q -0.08,-0.11 -0.43,-0.11 v 0 h -2.1 v 0 q -0.34,0 -0.42,0.08 v 0 0 q -0.09,0.09 -0.09,0.35 v 0 3.31 0 q 0,0.37 0.09,0.47 v 0 0 q 0.08,0.1 0.36,0.1 v 0 0 q 2.92,-0.02 3.44,-0.08 v 0 0 q 0.52,-0.06 0.6,-0.31 v 0 l 0.01,-0.02 0.01,-0.01 0.22,-1.18 0.48,0.08 -0.35,2.16 h -7.1 v -0.54 h 0.37 v 0 q 0.56,0 0.64,-0.07 v 0 0 q 0.1,-0.08 0.1,-0.47 v 0 -7.09 0 q 0,-0.42 -0.15,-0.51 v 0 0 q -0.17,-0.09 -0.83,-0.09 v 0 z m 15.99,0 h -0.39 l 0.02,-0.56 h 3.1 v 0 q 1.74,0 2.52,0.67 v 0 0 q 0.78,0.67 0.77,1.62 v 0 0 q 0,0.71 -0.53,1.23 v 0 0 q -0.56,0.54 -1.26,0.75 v 0 0 q 1.08,0.22 1.61,0.99 v 0 0 q 0.52,0.74 0.51,1.67 v 0 0 q 0,1 -0.62,1.58 v 0 0 q -0.61,0.54 -1.56,0.69 v 0 0 q -0.92,0.13 -2.46,0.13 v 0 h -1.99 v -0.54 h 0.42 v 0 q 0.36,0 0.48,-0.07 v 0 0 q 0.11,-0.07 0.11,-0.34 v 0 -7.32 0 q 0,-0.33 -0.15,-0.42 v 0 0 Q 248.54,3.64 248.1,3.64 Z m 1.84,3.95 v 0 l 0.02,3.76 v 0 q 0,0.28 0.17,0.36 v 0 0 q 0.17,0.09 0.74,0.09 v 0 0 q 2.26,0 2.26,-1.89 v 0 0 q 0,-0.69 -0.32,-1.18 v 0 0 q -0.32,-0.49 -0.84,-0.71 v 0 0 q -0.59,-0.27 -1.03,-0.34 v 0 0 q -0.48,-0.09 -1,-0.09 z m 0.02,-3.58 v 3.18 h 1.38 v 0 q 0.65,0 1.07,-0.53 v 0 0 q 0.4,-0.51 0.41,-1.12 v 0 0 q 0,-0.69 -0.59,-1.27 v 0 0 q -0.57,-0.58 -1.85,-0.58 v 0 0 q -0.42,0 -0.42,0.32 z m 22.12,-0.37 -0.01,-0.56 h 7.21 v 0 q 0.02,1.06 0.07,2.2 v 0 L 278.8,5.3 v 0 q -0.01,-0.64 -0.06,-1.05 v 0 0 q -0.05,-0.36 -0.1,-0.45 v 0 0 q -0.06,-0.09 -0.17,-0.11 v 0 0 q -0.1,-0.01 -0.68,-0.01 v 0 h -2.38 v 0 q -0.55,0 -0.69,0.09 v 0 0 q -0.13,0.09 -0.13,0.56 v 0 1.95 0 q 0,0.41 0.06,0.48 v 0 0 q 0.07,0.08 0.41,0.08 v 0 h 2.11 v 0 q 0.36,0 0.44,-0.11 v 0 0 q 0.09,-0.1 0.09,-0.59 v 0 -0.53 l 0.52,0.02 v 3.34 h -0.52 v -0.73 0 q 0,-0.58 -0.07,-0.67 v 0 0 Q 277.55,7.46 277.2,7.46 v 0 h -2.1 v 0 q -0.34,0 -0.42,0.08 v 0 0 q -0.09,0.09 -0.09,0.35 v 0 3.31 0 q 0,0.37 0.09,0.47 v 0 0 q 0.08,0.1 0.36,0.1 v 0 0 q 2.92,-0.02 3.44,-0.08 v 0 0 q 0.52,-0.06 0.6,-0.31 v 0 l 0.01,-0.02 0.01,-0.01 0.22,-1.18 0.48,0.08 -0.35,2.16 h -7.1 v -0.54 h 0.37 v 0 q 0.56,0 0.64,-0.07 v 0 0 q 0.1,-0.08 0.1,-0.47 v 0 -7.09 0 q 0,-0.42 -0.15,-0.51 v 0 0 q -0.17,-0.09 -0.83,-0.09 v 0 z m 18.58,8.77 h -2.98 v -0.54 0 q 0.08,0 0.2,-0.01 v 0 0 q 0.12,-0.01 0.15,-0.01 v 0 h 0.23 v 0 q 0.13,0 0.22,-0.04 v 0 l 0.14,-0.07 v 0 q 0.06,-0.02 0.16,-0.13 v 0 0 q 0.05,-0.04 0.1,-0.09 v 0 0 q 0.05,-0.06 0.06,-0.07 v 0 l 0.22,-0.25 v 0 q 0.23,-0.26 0.27,-0.3 v 0 l 2.67,-3.02 -2.76,-3.49 v 0 q -0.46,-0.58 -0.61,-0.67 v 0 0 q -0.14,-0.08 -0.81,-0.08 v 0 -0.56 h 3.55 v 0.56 h -0.38 v 0 q -0.29,0 -0.46,0.02 v 0 0 q -0.12,0.02 -0.12,0.11 v 0 0 q 0,0.13 0.5,0.83 v 0 l 1.82,2.44 1.87,-2.12 v 0 q 0.48,-0.54 0.69,-0.83 v 0 0 q 0.13,-0.17 0.13,-0.27 v 0 0 q 0,-0.18 -0.66,-0.18 v 0 h -0.39 l 0.02,-0.56 h 2.99 v 0.56 0 q -0.67,0 -0.81,0.07 v 0 0 q -0.17,0.08 -0.62,0.57 v 0 l -2.87,3.16 1.79,2.29 v 0 q 1.18,1.51 1.53,1.83 v 0 0 q 0.32,0.31 0.81,0.31 v 0 h 0.24 l 0.01,0.54 h -3.61 v -0.54 h 0.34 v 0 q 0.69,0 0.69,-0.18 v 0 0 q 0,-0.1 -0.57,-0.84 v 0 l -1.97,-2.54 -2.52,2.91 v 0 q -0.32,0.37 -0.32,0.51 v 0 0 q 0,0.14 0.56,0.14 v 0 h 0.5 z m 18.37,0 h -3.73 v -0.54 h 0.44 v 0 q 0.37,0 0.43,-0.06 v 0 0 q 0.07,-0.07 0.07,-0.35 v 0 -7.32 0 q 0,-0.33 -0.08,-0.42 v 0 0 q -0.09,-0.08 -0.45,-0.08 v 0 h -0.37 l 0.01,-0.56 h 2.89 v 0 q 1.15,0 1.8,0.11 v 0 0 q 0.6,0.09 1.07,0.49 v 0 0 q 1.19,0.96 1.19,2.51 v 0 0 q 0,1.04 -0.77,1.79 v 0 0 q -0.78,0.76 -2.18,0.75 v 0 0 q -0.17,0 -0.59,-0.03 v 0 0 q -0.11,-0.01 -0.53,-0.08 v 0 0 q -0.34,-0.07 -0.44,-0.08 v 0 0 q -0.29,-0.07 -0.3,-0.08 v 0 l -0.12,-0.02 v 3.02 0 q 0,0.28 0.13,0.35 v 0 0 q 0.11,0.06 0.83,0.06 v 0 h 0.7 z m -1.66,-8.13 v 3.74 0 q 0.35,0.27 1.32,0.27 v 0 0 q 1.14,0 1.71,-0.54 v 0 0 q 0.59,-0.54 0.59,-1.59 v 0 0 q 0,-1.18 -0.91,-1.85 v 0 0 q -0.9,-0.67 -2.29,-0.67 v 0 0 q -0.25,0 -0.33,0.11 v 0 0 q -0.08,0.09 -0.09,0.53 z m 12.92,-0.64 -0.01,-0.56 h 7.21 v 0 q 0.01,1.06 0.07,2.2 v 0 l -0.55,0.02 v 0 Q 327,4.66 326.94,4.25 v 0 0 Q 326.9,3.89 326.85,3.8 v 0 0 q -0.06,-0.09 -0.17,-0.11 v 0 0 q -0.1,-0.01 -0.69,-0.01 v 0 h -2.38 v 0 q -0.54,0 -0.69,0.09 v 0 0 q -0.12,0.09 -0.12,0.56 v 0 1.95 0 q 0,0.41 0.05,0.48 v 0 0 q 0.07,0.08 0.41,0.08 v 0 h 2.12 v 0 q 0.36,0 0.44,-0.11 v 0 0 q 0.08,-0.1 0.09,-0.59 v 0 -0.53 l 0.51,0.02 v 3.34 h -0.51 v -0.73 0 q 0,-0.58 -0.08,-0.67 v 0 0 Q 325.75,7.46 325.4,7.46 v 0 h -2.09 v 0 q -0.34,0 -0.42,0.08 v 0 0 q -0.09,0.09 -0.09,0.35 v 0 3.31 0 q 0,0.37 0.09,0.47 v 0 0 q 0.08,0.1 0.35,0.1 v 0 0 q 2.92,-0.02 3.45,-0.08 v 0 0 q 0.52,-0.06 0.6,-0.31 v 0 l 0.01,-0.02 v -0.01 l 0.23,-1.18 0.48,0.08 -0.35,2.16 h -7.1 v -0.54 h 0.37 v 0 q 0.56,0 0.64,-0.07 v 0 0 q 0.1,-0.08 0.1,-0.47 v 0 -7.09 0 q 0,-0.42 -0.16,-0.51 v 0 0 q -0.17,-0.09 -0.82,-0.09 v 0 z m 15.93,0 h -0.39 l 0.01,-0.56 h 3.22 v 0 q 1.14,0 1.74,0.13 v 0 0 q 0.64,0.16 1.11,0.54 v 0 0 q 1,0.82 1,1.96 v 0 0 q 0,0.72 -0.47,1.33 v 0 0 q -0.49,0.62 -1.52,0.88 v 0 l 2.68,3.57 v 0 q 0.31,0.38 0.6,0.38 v 0 h 0.6 l 0.03,0.54 H 342.8 L 339.81,8.1 h -0.17 v 0 q -0.04,0 -0.1,0.01 v 0 0 q -0.05,0 -0.07,0 v 0 0 q -0.88,0 -1.28,-0.08 v 0 3.43 0 q 0,0.3 0.15,0.35 v 0 0 q 0.12,0.06 0.83,0.06 v 0 h 0.71 l -0.03,0.54 h -3.73 v -0.54 h 0.32 v 0 q 0.47,0 0.54,-0.06 v 0 0 q 0.08,-0.07 0.08,-0.35 v 0 -7.32 0 q 0,-0.32 -0.19,-0.41 v 0 0 q -0.23,-0.09 -0.65,-0.09 z m 1.97,0.64 v 3.29 0 q 0.19,0.13 0.9,0.14 v 0 0 q 1.27,0 1.85,-0.44 v 0 0 q 0.59,-0.43 0.59,-1.35 v 0 0 q 0,-1 -0.77,-1.65 v 0 0 Q 340,3.64 338.62,3.64 v 0 0 q -0.25,0 -0.34,0.11 v 0 0 q -0.08,0.09 -0.09,0.53 z m 14.98,-0.64 h -0.59 l 0.02,-0.56 h 3.51 v 0.56 h -0.23 v 0 q -0.55,0 -0.72,0.09 v 0 0 q -0.14,0.08 -0.14,0.55 v 0 6.94 0 q 0,0.46 0.11,0.55 v 0 0 q 0.11,0.1 0.65,0.1 v 0 h 0.54 l 0.02,0.54 h -3.59 l -0.01,-0.54 h 0.36 v 0 q 0.56,0 0.68,-0.1 v 0 0 q 0.11,-0.1 0.11,-0.52 v 0 -7.11 0 q 0,-0.37 -0.1,-0.43 v 0 0 q -0.11,-0.07 -0.62,-0.07 z m 10.92,0 -0.01,-0.56 h 7.21 v 0 q 0.01,1.06 0.07,2.2 v 0 l -0.55,0.02 v 0 q -0.02,-0.64 -0.07,-1.05 v 0 0 Q 370.7,3.89 370.64,3.8 v 0 0 q -0.05,-0.09 -0.17,-0.11 v 0 0 q -0.09,-0.01 -0.68,-0.01 v 0 h -2.38 v 0 q -0.55,0 -0.69,0.09 v 0 0 q -0.12,0.09 -0.12,0.56 v 0 1.95 0 q 0,0.41 0.05,0.48 v 0 0 q 0.07,0.08 0.41,0.08 v 0 h 2.11 v 0 q 0.37,0 0.45,-0.11 v 0 0 q 0.08,-0.1 0.09,-0.59 v 0 -0.53 l 0.51,0.02 v 3.34 h -0.51 v -0.73 0 q 0,-0.58 -0.08,-0.67 v 0 0 Q 369.55,7.46 369.2,7.46 v 0 h -2.1 v 0 q -0.33,0 -0.42,0.08 v 0 0 q -0.08,0.09 -0.08,0.35 v 0 3.31 0 q 0,0.37 0.08,0.47 v 0 0 q 0.09,0.1 0.36,0.1 v 0 0 q 2.92,-0.02 3.45,-0.08 v 0 0 q 0.52,-0.06 0.6,-0.31 v 0 l 0.01,-0.02 v -0.01 l 0.23,-1.18 0.48,0.08 -0.35,2.16 h -7.1 v -0.54 h 0.36 v 0 q 0.57,0 0.65,-0.07 v 0 0 q 0.09,-0.08 0.09,-0.47 v 0 -7.09 0 q 0,-0.42 -0.15,-0.51 v 0 0 q -0.17,-0.09 -0.82,-0.09 v 0 z m 15.61,0 -0.02,-0.56 h 2.18 l 5.73,7.4 v -6.34 0 q 0,-0.33 -0.15,-0.42 v 0 0 q -0.16,-0.08 -0.61,-0.08 v 0 h -0.5 l 0.03,-0.56 h 2.98 v 0.56 h -0.32 v 0 q -0.47,0 -0.62,0.11 v 0 0 q -0.15,0.11 -0.15,0.5 v 0 8.07 0.15 0 q 0,0.05 -0.01,0.1 v 0 0 q -0.01,0.04 -0.05,0.07 v 0 0 q -0.01,0.01 -0.07,0.01 v 0 h -0.19 -0.06 -0.03 l -0.02,-0.01 v 0 q -0.03,0 -0.04,-0.01 v 0 0 q -0.02,-0.02 -0.02,-0.03 v 0 0 q 0,-0.02 -0.01,-0.03 v 0 0 q -0.03,-0.03 -0.06,-0.07 v 0 0 q -0.01,-0.02 -0.03,-0.05 v 0 0 q -0.02,-0.04 -0.03,-0.05 v 0 l -6.11,-7.84 0.07,6.66 v 0 q 0,0.45 0.16,0.55 v 0 0 q 0.16,0.1 0.87,0.1 v 0 h 0.24 v 0.54 h -2.94 v -0.54 h 0.42 v 0 q 0.38,0 0.49,-0.11 v 0 0 q 0.1,-0.1 0.1,-0.51 v 0 -7.45 l -0.14,-0.16 z m 17.76,4.38 v 0 0 q 0,-1.16 0.47,-2.19 v 0 0 q 0.47,-0.98 1.22,-1.56 v 0 0 q 0.75,-0.58 1.64,-0.9 v 0 0 q 0.9,-0.32 1.74,-0.32 v 0 0 q 0.87,0 1.54,0.11 v 0 0 q 0.62,0.1 0.92,0.21 v 0 0 q 0.31,0.11 0.34,0.11 v 0 0 q 0.17,0 0.19,-0.07 v 0 0 q 0.03,-0.08 0.03,-0.32 v 0 -0.12 h 0.53 v 0 q 0.04,1.33 0.17,2.67 v 0 l -0.5,0.01 v 0 Q 405.72,5.4 405.71,5.26 v 0 0 q 0,-0.06 -0.01,-0.13 v 0 0 q -0.01,-0.06 -0.01,-0.11 v 0 0 q -0.01,-0.04 -0.01,-0.07 v 0 0 q -0.03,-0.11 -0.03,-0.21 v 0 0 q 0,-0.06 -0.04,-0.15 v 0 0 q 0,-0.02 -0.03,-0.04 v 0 0 Q 405.55,4.52 405.55,4.5 v 0 0 q -0.03,-0.06 -0.1,-0.09 v 0 0 q -0.04,-0.03 -0.07,-0.04 v 0 0 q -0.02,-0.01 -0.05,-0.02 v 0 0 q -0.01,0 -0.04,-0.02 v 0 0 q -0.02,-0.02 -0.06,-0.04 v 0 0 q -0.04,-0.02 -0.08,-0.04 v 0 0 q -0.23,-0.09 -0.26,-0.11 v 0 0 Q 404.54,3.96 403.9,3.83 v 0 0 q -0.67,-0.12 -1.33,-0.12 v 0 0 q -1.72,0 -2.82,1.13 v 0 0 q -1.11,1.15 -1.1,2.78 v 0 0 q 0,1.73 1.22,3.07 v 0 0 q 1.2,1.33 3.02,1.33 v 0 0 q 1,0 1.95,-0.53 v 0 0 q 0.95,-0.55 0.98,-0.91 v 0 l 0.04,-1.17 h 0.49 l -0.08,2.04 v 0 q -0.07,0.04 -0.2,0.12 v 0 0 q -0.06,0.03 -0.52,0.28 v 0 0 q -0.38,0.2 -0.82,0.38 v 0 0 q -0.36,0.16 -1.01,0.28 v 0 0 q -0.61,0.12 -1.18,0.13 v 0 0 q -2.38,0 -3.74,-1.25 v 0 0 q -1.34,-1.25 -1.34,-3.37 z m 16.93,-4.38 -0.01,-0.56 h 7.21 v 0 q 0.02,1.06 0.07,2.2 v 0 l -0.55,0.02 v 0 Q 421.1,4.66 421.05,4.25 v 0 0 Q 421,3.89 420.95,3.8 v 0 0 Q 420.9,3.71 420.78,3.69 v 0 0 q -0.1,-0.01 -0.68,-0.01 v 0 h -2.38 v 0 q -0.55,0 -0.69,0.09 v 0 0 q -0.13,0.09 -0.13,0.56 v 0 1.95 0 q 0,0.41 0.06,0.48 v 0 0 q 0.07,0.08 0.41,0.08 v 0 h 2.11 v 0 q 0.36,0 0.44,-0.11 v 0 0 q 0.09,-0.1 0.09,-0.59 v 0 -0.53 l 0.52,0.02 v 3.34 h -0.52 v -0.73 0 q 0,-0.58 -0.07,-0.67 v 0 0 q -0.08,-0.11 -0.43,-0.11 v 0 h -2.1 v 0 q -0.34,0 -0.42,0.08 v 0 0 q -0.09,0.09 -0.09,0.35 v 0 3.31 0 q 0,0.37 0.09,0.47 v 0 0 q 0.08,0.1 0.36,0.1 v 0 0 q 2.92,-0.02 3.44,-0.08 v 0 0 q 0.52,-0.06 0.6,-0.31 v 0 l 0.01,-0.02 0.01,-0.01 0.22,-1.18 0.48,0.08 -0.35,2.16 h -7.1 v -0.54 h 0.37 v 0 q 0.56,0 0.64,-0.07 v 0 0 q 0.1,-0.08 0.1,-0.47 v 0 -7.09 0 q 0,-0.42 -0.15,-0.51 v 0 0 q -0.17,-0.09 -0.83,-0.09 v 0 z"
       id="path274"
       style="stroke:#ffffff;stroke-opacity:1;stroke-width:0.17386046;stroke-miterlimit:4;stroke-dasharray:none;fill:#000000;fill-opacity:1" />
  </g>
</svg>
