<svg data-v-fde0c5aa="" xmlns="http://www.w3.org/2000/svg" viewBox="0 0 300 300" class="iconLeft"><!----><defs data-v-fde0c5aa=""><!----></defs><rect data-v-fde0c5aa="" fill="transparent" x="0" y="0" width="300px" height="300px" class="logo-background-square"></rect><defs data-v-fde0c5aa=""><!----></defs><g data-v-fde0c5aa="" id="1561ff47-ef28-4d3f-b3f9-c83b524ecc6d" fill="#000000" transform="matrix(3.240363402779331,0,0,3.240363402779331,89.84852760113604,131.85396535003125)"><path d="M10.92 1.69L10.78 0.70L6.78 0.70L6.64 1.69L7.81 2.16L7.81 4.91L3.67 4.91L3.67 2.16L4.84 1.69L4.70 0.70L0.70 0.70L0.56 1.69L1.74 2.16L1.74 9.07L0.57 9.51L0.73 10.50L4.68 10.50L4.82 9.51L3.67 9.07L3.67 5.99L7.81 5.99L7.81 9.07L6.64 9.51L6.78 10.50L10.75 10.50L10.91 9.51L9.74 9.06L9.74 2.16ZM13.12 8.82C12.60 8.82 12.17 9.25 12.17 9.77C12.17 10.30 12.60 10.74 13.12 10.74C13.65 10.74 14.08 10.30 14.08 9.77C14.08 9.25 13.65 8.82 13.12 8.82ZM27.58 10.74L28.92 10.50L31.51 2.16L32.76 1.69L32.61 0.70L29.44 0.70L29.29 1.69L30.41 2.16L28.35 8.47L28.35 6.58L26.45 0.46L25.47 0.70L22.99 8.54L22.99 6.58L21.57 2.16L22.71 1.69L22.54 0.70L18.49 0.70L18.35 1.69L19.59 2.16L22.22 10.74L23.59 10.50L25.82 3.44L25.82 5.11ZM34.44 8.82C33.92 8.82 33.49 9.25 33.49 9.77C33.49 10.30 33.92 10.74 34.44 10.74C34.97 10.74 35.41 10.30 35.41 9.77C35.41 9.25 34.97 8.82 34.44 8.82ZM44.39 1.69C46.45 1.69 47.40 3.40 47.40 5.50C47.40 7.62 46.45 9.51 44.39 9.51L43.22 9.51L43.22 1.69ZM44.35 10.50C47.85 10.50 49.49 8.25 49.49 5.53C49.49 2.81 47.88 0.70 44.39 0.70L40.25 0.70L40.11 1.69L41.29 2.16L41.29 9.07L40.12 9.51L40.26 10.50ZM51.55 8.82C51.03 8.82 50.60 9.25 50.60 9.77C50.60 10.30 51.03 10.74 51.55 10.74C52.08 10.74 52.51 10.30 52.51 9.77C52.51 9.25 52.08 8.82 51.55 8.82Z"></path></g><defs data-v-fde0c5aa=""><linearGradient data-v-fde0c5aa="" gradientTransform="rotate(25)" id="2ca21633-38da-466d-92db-855ceff34078" x1="0%" y1="0%" x2="100%" y2="0%"><stop data-v-fde0c5aa="" offset="0%" stop-color="#0015D6" stop-opacity="1"></stop><stop data-v-fde0c5aa="" offset="100%" stop-color="#0989FB" stop-opacity="1"></stop></linearGradient></defs><g data-v-fde0c5aa="" id="f6495adb-2558-4924-bd46-4dabda1013ba" stroke="none" fill="url(#2ca21633-38da-466d-92db-855ceff34078)" transform="matrix(0.5108359887190083,0,0,0.5108359887190083,33.36781645979272,124.50596282480512)"><g clip-rule="evenodd"><path d="M12.983 10.59l17.018 88.223-5.872-59.049 29.021-1.892-.054-9.883L64.549 1 53.622 18.977z"></path><path d="M59.389 54.548l5.16-53.541-8.74 39.716-19.612 1.045 1.57 20.462-7.766 36.583 12.057-39.899z"></path><path d="M62.8 67.182l.549-10.453-15.979 3.755-.032 11.797-17.337 26.532 21.68-27.616zM65.711 62.394l14.841-4.731 1.509-12.532-15.899 2.095zM72.07 44.502l10.988-1.417 1.581-10.278-8.079-.373L64.549 1l8.43 30.967z"></path><path d="M87.413 31.294l1.256-9.506-9.544-2.694L64.549 1l14.483 22.437-.422 7z"></path></g></g><!----></svg>